{
	"asset":{
		"generator":"Khronos glTF Blender I/O v3.6.27",
		"version":"2.0"
	},
	"scene":0,
	"scenes":[
		{
			"name":"Scene",
			"nodes":[
				0
			]
		}
	],
	"nodes":[
		{
			"mesh":0,
			"name":"Cylinder"
		}
	],
	"materials":[
		{
			"doubleSided":true,
			"name":"Material.001",
			"pbrMetallicRoughness":{
				"baseColorFactor":[
					1,
					0,
					0.0008798605413176119,
					1
				],
				"metallicFactor":0,
				"roughnessFactor":0.5
			}
		},
		{
			"doubleSided":true,
			"name":"Material.005",
			"pbrMetallicRoughness":{
				"metallicFactor":0,
				"roughnessFactor":0.5
			}
		}
	],
	"meshes":[
		{
			"name":"Cylinder",
			"primitives":[
				{
					"attributes":{
						"POSITION":0,
						"NORMAL":1,
						"TEXCOORD_0":2
					},
					"indices":3,
					"material":0
				},
				{
					"attributes":{
						"POSITION":4,
						"NORMAL":5,
						"TEXCOORD_0":6
					},
					"indices":7,
					"material":1
				}
			]
		}
	],
	"accessors":[
		{
			"bufferView":0,
			"componentType":5126,
			"count":224,
			"max":[
				1,
				1,
				1
			],
			"min":[
				-1,
				-1,
				-1
			],
			"type":"VEC3"
		},
		{
			"bufferView":1,
			"componentType":5126,
			"count":224,
			"type":"VEC3"
		},
		{
			"bufferView":2,
			"componentType":5126,
			"count":224,
			"type":"VEC2"
		},
		{
			"bufferView":3,
			"componentType":5123,
			"count":474,
			"type":"SCALAR"
		},
		{
			"bufferView":4,
			"componentType":5126,
			"count":32,
			"max":[
				1,
				-1,
				1
			],
			"min":[
				-1,
				-1,
				-1
			],
			"type":"VEC3"
		},
		{
			"bufferView":5,
			"componentType":5126,
			"count":32,
			"type":"VEC3"
		},
		{
			"bufferView":6,
			"componentType":5126,
			"count":32,
			"type":"VEC2"
		},
		{
			"bufferView":7,
			"componentType":5123,
			"count":90,
			"type":"SCALAR"
		}
	],
	"bufferViews":[
		{
			"buffer":0,
			"byteLength":2688,
			"byteOffset":0,
			"target":34962
		},
		{
			"buffer":0,
			"byteLength":2688,
			"byteOffset":2688,
			"target":34962
		},
		{
			"buffer":0,
			"byteLength":1792,
			"byteOffset":5376,
			"target":34962
		},
		{
			"buffer":0,
			"byteLength":948,
			"byteOffset":7168,
			"target":34963
		},
		{
			"buffer":0,
			"byteLength":384,
			"byteOffset":8116,
			"target":34962
		},
		{
			"buffer":0,
			"byteLength":384,
			"byteOffset":8500,
			"target":34962
		},
		{
			"buffer":0,
			"byteLength":256,
			"byteOffset":8884,
			"target":34962
		},
		{
			"buffer":0,
			"byteLength":180,
			"byteOffset":9140,
			"target":34963
		}
	],
	"buffers":[
		{
			"byteLength":9320,
			"uri":"data:application/octet-stream;base64,"
		}
	]
}
