{
	"asset":{
		"generator":"Khronos glTF Blender I/O v3.6.27",
		"version":"2.0"
	},
	"extensionsUsed":[
		"KHR_materials_specular",
		"KHR_materials_ior"
	],
	"scene":0,
	"scenes":[
		{
			"name":"Scene",
			"nodes":[
				0
			]
		}
	],
	"nodes":[
		{
			"mesh":0,
			"name":"Cube"
		}
	],
	"materials":[
		{
			"doubleSided":true,
			"extensions":{
				"KHR_materials_specular":{
					"specularColorFactor":[
						0.2125273453706475,
						0.2125273453706475,
						0.2125273453706475
					]
				},
				"KHR_materials_ior":{
					"ior":1.4500000476837158
				}
			},
			"name":"PistolBlack",
			"pbrMetallicRoughness":{
				"baseColorFactor":[
					0.02090495266020298,
					0.02090495266020298,
					0.02090495266020298,
					1
				],
				"metallicFactor":0,
				"roughnessFactor":0.5
			}
		},
		{
			"doubleSided":true,
			"name":"PistolGray",
			"pbrMetallicRoughness":{
				"baseColorFactor":[
					0.08836309611797333,
					0.08836309611797333,
					0.08836309611797333,
					1
				],
				"metallicFactor":0,
				"roughnessFactor":0.5
			}
		}
	],
	"meshes":[
		{
			"name":"Cube",
			"primitives":[
				{
					"attributes":{
						"POSITION":0,
						"NORMAL":1,
						"TEXCOORD_0":2
					},
					"indices":3,
					"material":0
				},
				{
					"attributes":{
						"POSITION":4,
						"NORMAL":5,
						"TEXCOORD_0":6
					},
					"indices":7,
					"material":1
				}
			]
		}
	],
	"accessors":[
		{
			"bufferView":0,
			"componentType":5126,
			"count":156,
			"max":[
				0.03507404029369354,
				0.10000002384185791,
				0.0708005353808403
			],
			"min":[
				-0.03507404029369354,
				-0.10000002384185791,
				-0.25
			],
			"type":"VEC3"
		},
		{
			"bufferView":1,
			"componentType":5126,
			"count":156,
			"type":"VEC3"
		},
		{
			"bufferView":2,
			"componentType":5126,
			"count":156,
			"type":"VEC2"
		},
		{
			"bufferView":3,
			"componentType":5123,
			"count":246,
			"type":"SCALAR"
		},
		{
			"bufferView":4,
			"componentType":5126,
			"count":246,
			"max":[
				0.02467331290245056,
				0.08090009540319443,
				0.07452040910720825
			],
			"min":[
				-0.02467331290245056,
				0.03137033060193062,
				-0.2542206943035126
			],
			"type":"VEC3"
		},
		{
			"bufferView":5,
			"componentType":5126,
			"count":246,
			"type":"VEC3"
		},
		{
			"bufferView":6,
			"componentType":5126,
			"count":246,
			"type":"VEC2"
		},
		{
			"bufferView":7,
			"componentType":5123,
			"count":504,
			"type":"SCALAR"
		}
	],
	"bufferViews":[
		{
			"buffer":0,
			"byteLength":1872,
			"byteOffset":0,
			"target":34962
		},
		{
			"buffer":0,
			"byteLength":1872,
			"byteOffset":1872,
			"target":34962
		},
		{
			"buffer":0,
			"byteLength":1248,
			"byteOffset":3744,
			"target":34962
		},
		{
			"buffer":0,
			"byteLength":492,
			"byteOffset":4992,
			"target":34963
		},
		{
			"buffer":0,
			"byteLength":2952,
			"byteOffset":5484,
			"target":34962
		},
		{
			"buffer":0,
			"byteLength":2952,
			"byteOffset":8436,
			"target":34962
		},
		{
			"buffer":0,
			"byteLength":1968,
			"byteOffset":11388,
			"target":34962
		},
		{
			"buffer":0,
			"byteLength":1008,
			"byteOffset":13356,
			"target":34963
		}
	],
	"buffers":[
		{
			"byteLength":14364,
			"uri":"data:application/octet-stream;base64,"
		}
	]
}
